<svg width="256" height="256" viewBox="0 0 256 256" fill="none" xmlns="http://www.w3.org/2000/svg">
<path d="M18.9159 142.992H92.5948C94.5861 142.992 95.9848 144.936 95.3605 146.824L88.9519 166.042C88.3198 167.931 89.7263 169.875 91.7177 169.875H239.992V180.4C239.992 182.012 238.688 183.316 237.076 183.316H163.389C161.398 183.316 159.999 181.372 160.624 179.484L167.032 160.266C167.664 158.377 166.258 156.433 164.267 156.433H16V145.908C16 144.296 17.3038 142.992 18.9159 142.992Z" fill="white"/>
<path d="M231.482 86.9898H199.423L195.195 99.6884V116.109H210.13V94.3783C210.13 92.7662 211.434 91.4624 213.038 91.4624H222.149C223.761 91.4624 225.065 92.7662 225.065 94.3783V116.109H240V95.5003C240 90.7986 236.191 86.9898 231.489 86.9898H231.482Z" fill="white"/>
<path d="M171.75 86.9898H139.691L135.464 99.6884V116.109H150.398V94.3783C150.398 92.7662 151.702 91.4624 153.314 91.4624H162.425C164.037 91.4624 165.341 92.7662 165.341 94.3783V116.109H180.276V95.5003C180.276 90.7986 176.467 86.9898 171.766 86.9898H171.75Z" fill="white"/>
<path d="M120.529 103.41V86.9898H105.594V108.721C105.594 110.333 104.29 111.636 102.686 111.636H93.5746C91.9626 111.636 90.6667 110.333 90.6667 108.721V86.9898H75.7318V107.598C75.7318 112.3 79.5406 116.109 84.2423 116.109H116.301L120.529 103.41Z" fill="white"/>
<path d="M60.7968 103.41V101.103H38.4024V106.476H45.8698V108.713C45.8698 110.325 44.566 111.628 42.954 111.628H33.8429C32.2309 111.628 30.927 110.325 30.927 108.713V94.3783C30.927 92.7662 32.2309 91.4624 33.8429 91.4624H42.954C44.566 91.4624 45.8698 92.7662 45.8698 94.3783V97.065H60.8047V95.5003C60.8047 90.7986 56.9959 86.9898 52.2942 86.9898H24.5105C19.8088 86.9898 16 90.7986 16 95.5003V107.598C16 112.3 19.8088 116.109 24.5105 116.109H56.5692L60.7968 103.41Z" fill="white"/>
</svg>
