<svg width="48" height="48" viewBox="0 0 48 48" fill="none" xmlns="http://www.w3.org/2000/svg">
<path fill-rule="evenodd" clip-rule="evenodd" d="M24.4067 21.5714V28.6H35.9802C35.5137 31.6135 32.4819 37.4443 24.4067 37.4443C17.4393 37.4443 11.7545 31.6486 11.7545 24.5C11.7545 17.3543 17.4393 11.5557 24.4067 11.5557C28.3714 11.5557 31.0243 13.2543 32.5402 14.7186L38.0791 9.35929C34.5226 6.02071 29.9165 4 24.4067 4C13.1247 4 4 13.1664 4 24.5C4 35.8336 13.1247 45 24.4067 45C36.1842 45 44 36.6829 44 24.9686C44 23.6214 43.8513 22.5964 43.6764 21.5714H24.4067Z" fill="black"/>
</svg>
