<svg width="48" height="48" viewBox="0 0 48 48" fill="none" xmlns="http://www.w3.org/2000/svg">
<path d="M24 6.9492C29.5536 6.9492 30.2123 6.97 32.4067 7.07053C38.0435 7.32706 40.6764 10.0016 40.9329 15.5968C41.0335 17.7895 41.0525 18.4481 41.0525 24.0017C41.0525 29.5571 41.0317 30.214 40.9329 32.4067C40.6747 37.9967 38.0487 40.6764 32.4067 40.9329C30.2123 41.0335 29.5571 41.0543 24 41.0543C18.4464 41.0543 17.7877 41.0335 15.5951 40.9329C9.9444 40.6747 7.32533 37.988 7.0688 32.4049C6.96826 30.2123 6.94746 29.5553 6.94746 24C6.94746 18.4464 6.97 17.7895 7.0688 15.5951C7.32706 10.0016 9.95306 7.32533 15.5951 7.0688C17.7895 6.97 18.4464 6.9492 24 6.9492ZM24 3.2C18.3511 3.2 17.6439 3.22426 15.4252 3.3248C7.87133 3.67146 3.6732 7.86266 3.32653 15.4235C3.22426 17.6439 3.2 18.3511 3.2 24C3.2 29.6489 3.22426 30.3579 3.3248 32.5765C3.67146 40.1304 7.86266 44.3285 15.4235 44.6752C17.6439 44.7757 18.3511 44.8 24 44.8C29.6489 44.8 30.3579 44.7757 32.5765 44.6752C40.1235 44.3285 44.332 40.1373 44.6735 32.5765C44.7757 30.3579 44.8 29.6489 44.8 24C44.8 18.3511 44.7757 17.6439 44.6752 15.4252C44.3355 7.87826 40.1391 3.6732 32.5783 3.32653C30.3579 3.22426 29.6489 3.2 24 3.2ZM24 13.3192C18.1015 13.3192 13.3192 18.1015 13.3192 24C13.3192 29.8985 18.1015 34.6825 24 34.6825C29.8985 34.6825 34.6808 29.9003 34.6808 24C34.6808 18.1015 29.8985 13.3192 24 13.3192ZM24 30.9333C20.1711 30.9333 17.0667 27.8307 17.0667 24C17.0667 20.1711 20.1711 17.0667 24 17.0667C27.8289 17.0667 30.9333 20.1711 30.9333 24C30.9333 27.8307 27.8289 30.9333 24 30.9333ZM35.1037 10.402C33.724 10.402 32.606 11.52 32.606 12.898C32.606 14.276 33.724 15.394 35.1037 15.394C36.4817 15.394 37.598 14.276 37.598 12.898C37.598 11.52 36.4817 10.402 35.1037 10.402Z" fill="black"/>
</svg>
