<svg width="48" height="48" viewBox="0 0 48 48" fill="none" xmlns="http://www.w3.org/2000/svg">
<path d="M42 34.2805C40.5459 38.4607 36.1929 45.8621 31.7085 45.9428C28.7337 45.9996 27.7772 44.1955 24.3769 44.1955C20.9785 44.1955 19.9147 45.8878 17.1027 45.9978C12.3445 46.1793 5 35.3146 5 25.8396C5 17.1365 11.1198 12.8225 16.4663 12.7437C19.3338 12.6923 22.0422 14.6596 23.7904 14.6596C25.5461 14.6596 28.8354 12.2945 32.2931 12.641C33.7398 12.7015 37.8042 13.2185 40.4127 16.999C33.4919 21.4761 34.5704 30.8393 42 34.2805ZM32.3393 2C27.1112 2.20901 22.8451 7.64502 23.4408 12.1405C28.273 12.5127 32.9091 7.1445 32.3393 2Z" fill="black"/>
</svg>
