<svg width="48" height="48" viewBox="0 0 48 48" fill="none" xmlns="http://www.w3.org/2000/svg">
<path d="M45.8667 10.6935C44.2576 11.4224 42.5284 11.9133 40.7134 12.1345C42.5666 11.0021 43.9898 9.20777 44.6585 7.0694C42.9256 8.11813 41.005 8.8805 38.9604 9.29144C37.3259 7.51195 34.9916 6.4 32.4114 6.4C26.6185 6.4 22.3618 11.9151 23.6702 17.6404C16.2155 17.2592 9.60444 13.6147 5.17826 8.07536C2.8276 12.1903 3.9592 17.5734 7.95351 20.2994C6.4848 20.251 5.09991 19.8401 3.89178 19.154C3.79338 23.3954 6.77271 27.3634 11.0877 28.2466C9.82493 28.5962 8.44186 28.678 7.03511 28.4028C8.17582 32.0399 11.4886 34.6859 15.4173 34.7603C11.6453 37.7782 6.89298 39.1263 2.13333 38.5536C6.10395 41.1512 10.8217 42.6667 15.8875 42.6667C32.5462 42.6667 41.958 28.3099 41.3895 15.4332C43.1424 14.1409 44.664 12.5287 45.8667 10.6935Z" fill="black"/>
</svg>
